<?xml version="1.0" encoding="UTF-8"?>
<svg width="1200pt" height="1200pt" version="1.1" viewBox="0 0 1200 1200" xmlns="http://www.w3.org/2000/svg">
 <path d="m632.81 569.58 143.06 265.6h345.61l-93.703-178.26c-131.68-29.109-263.29-58.219-394.97-87.328zm423.66 299.95v169.97c0 8.3906-6 15.328-13.922 16.875l-438.1 110.11c-3 0.79688-5.8594 0.79688-8.8594 0l-438.14-110.11c-7.9219-1.5469-13.922-8.4844-13.922-16.875v-169.97h-93.422c-12.844 0-21.188-13.781-15.188-25.172l110.62-210.42c2.3438-4.4531 6.5625-7.6406 11.484-8.7188l437.76-96.797c4.0781-1.0781 6.3281-1.0781 10.406 0l68.719 15.188c17.25-86.766 93.656-150.47 183.47-150.47 121.45 0 210.28 113.81 181.82 231.24 6.8438 1.5 11.672 2.8594 15.188 9.5625l110.62 210.42c6.0938 11.578-2.5312 25.172-15.188 25.172zm-473.68 258.37v-515.06l-132.84 246.61c-2.7188 5.9531-8.7188 10.078-15.656 10.078h-256.45l0.046875 156.61zm34.359-515.06 132.84 246.61c2.7188 5.9531 8.7188 10.078 15.656 10.078h256.4v156.61l-404.9 101.77zm93.141-564.71 170.86 170.86c28.031 28.031 15.516 76.172-23.203 86.531l-233.44 62.531c-38.484 10.312-73.641-24.797-63.328-63.328l62.531-233.44c10.453-38.672 58.547-51.188 86.578-23.156zm146.58 195.19-170.86-170.9c-9.7031-9.6562-25.641-5.0625-29.062 7.7812l-62.531 233.44c-3.4688 13.031 8.25 24.797 21.281 21.281l233.44-62.531c12.797-3.4688 17.438-19.406 7.7344-29.062zm-289.74 326.26-394.92 87.328-93.75 178.26h345.61zm-237.71-339.14c-43.781-25.266-100.08-10.172-125.29 33.562l-56.062 97.078c-26.344 43.828-10.734 102.19 34.031 126.98l96 55.406c43.828 26.344 102.19 10.734 126.98-34.031l56.016-97.031c25.266-43.781 10.172-100.08-33.562-125.34zm80.953 86.344-98.109-56.625c-27.281-15.75-62.719-6.2812-78.469 21.047l-56.672 98.109c-15.797 27.328-6.0469 63.047 21.094 78.469l98.109 56.625c27.328 15.797 63.047 6.0938 78.469-21.047l56.672-98.109c15.703-27.281 6.2344-62.672-21.094-78.469zm595.31 300.19-298.36-65.953c13.781-71.062 76.312-123.52 150.05-123.52 99.656 0 171.94 93.703 148.31 189.47z" fill="#4e45e5" fill-rule="evenodd"/>
</svg>
