<?xml version="1.0" encoding="UTF-8"?>
<svg width="1200pt" height="1200pt" version="1.1" viewBox="0 0 1200 1200" xmlns="http://www.w3.org/2000/svg">
 <path d="m1072.8 1164.1h-945.52c-17.16-0.019532-33.609-6.8438-45.746-18.98-12.133-12.133-18.957-28.586-18.98-45.746v-882.95c0.023437-17.16 6.8477-33.609 18.984-45.746 12.133-12.133 28.586-18.957 45.742-18.98h128.8v-31.273c-0.27734-22.414 8.5508-43.977 24.465-59.762 15.918-15.781 37.559-24.426 59.965-23.957 22.332-0.49609 43.914 8.0781 59.82 23.762 15.902 15.684 24.777 37.145 24.594 59.48v31.75h97.648v-31.273c0.25391-29.938 16.34-57.5 42.277-72.445 25.941-14.945 57.855-15.035 83.883-0.23828 26.023 14.801 42.262 42.273 42.684 72.207v31.75h97.648v-31.273c0.23828-29.945 16.32-57.523 42.266-72.477 25.945-14.953 57.871-15.043 83.902-0.23828 26.027 14.809 42.266 42.293 42.676 72.238v31.75h114.9c17.16 0.023437 33.609 6.8477 45.746 18.984 12.133 12.133 18.957 28.582 18.98 45.742v882.95c-0.023437 17.16-6.8477 33.613-18.98 45.746-12.137 12.137-28.586 18.961-45.746 18.98zm-945.52-974.91c-7.2148 0.007812-14.137 2.8789-19.242 7.9844-5.1055 5.1055-7.9766 12.023-7.9844 19.242v882.95c0.007812 7.2188 2.8789 14.141 7.9844 19.246 5.1055 5.1016 12.027 7.9727 19.246 7.9805h945.52c7.2188-0.007813 14.137-2.8789 19.242-7.9805 5.1055-5.1055 7.9766-12.027 7.9844-19.246v-882.95c-0.007812-7.2188-2.8789-14.141-7.9844-19.246-5.1055-5.1016-12.023-7.9727-19.242-7.9805h-246.24v84.449h-0.003907c0 6.6992-3.5742 12.887-9.375 16.238-5.8008 3.3477-12.949 3.3477-18.75 0-5.8008-3.3516-9.375-9.5391-9.375-16.238v-84.449h-228.99v84.453c0 6.6953-3.5742 12.887-9.375 16.238-5.8008 3.3477-12.949 3.3477-18.75 0-5.8008-3.3516-9.375-9.543-9.375-16.238v-84.453h-228.99v84.453c0 6.6953-3.5742 12.887-9.375 16.238-5.8008 3.3477-12.949 3.3477-18.75 0-5.8008-3.3516-9.375-9.543-9.375-16.238v-84.453zm699.28-37.5h93.844v-31.273c-0.25391-16.648-9.3125-31.918-23.801-40.121-14.492-8.2031-32.242-8.1133-46.648 0.23438-14.406 8.3516-23.309 23.711-23.395 40.363zm-266.49 0h93.84l0.003906-31.273c-0.25391-16.648-9.3125-31.918-23.801-40.121-14.492-8.2031-32.242-8.1133-46.648 0.23438-14.406 8.3516-23.309 23.711-23.395 40.363zm-266.49 0h93.84l0.003906-31.273c0.34766-12.488-4.5078-24.559-13.406-33.324-8.9023-8.7656-21.043-13.434-33.523-12.895-12.555-0.51172-24.754 4.2344-33.656 13.098-8.9062 8.8633-13.711 21.039-13.258 33.598zm727.02 914.23-841.11 0.003906c-4.9766 0-9.7461-1.9727-13.262-5.4922-3.5195-3.5156-5.4922-8.2852-5.4883-13.258v-630.86c-0.003906-4.9766 1.9688-9.7461 5.4883-13.262 3.5156-3.5195 8.2852-5.4922 13.262-5.4883h841.11c4.9766-0.003907 9.7461 1.9688 13.262 5.4883 3.5195 3.5156 5.4922 8.2852 5.4883 13.262v630.85c0.003906 4.9727-1.9688 9.7461-5.4883 13.262-3.5156 3.5156-8.2852 5.4922-13.262 5.4883zm-191.53-37.5h172.78v-172.78h-172.78zm-210.28 0h172.78v-172.78h-172.78zm-210.28 0 172.78 0.003906v-172.78h-172.78zm-210.28 0 172.78 0.003906v-172.78h-172.78zm630.84-210.28h172.78l-0.003906-172.78h-172.78zm-210.28 0h172.78l-0.003906-172.78h-172.78zm-210.28 0h172.77v-172.78h-172.78zm-210.28 0h172.77v-172.78h-172.78zm630.83-210.28h172.78v-172.8h-172.78zm-210.28 0h172.78v-172.8h-172.78zm-210.28 0h172.78v-172.8h-172.78zm-210.28 0h172.78v-172.8h-172.78z" fill="#4e45e5"/>
</svg>
