<?xml version="1.0" encoding="UTF-8"?>
<svg width="1200pt" height="1200pt" version="1.1" viewBox="0 0 1200 1200" xmlns="http://www.w3.org/2000/svg">
 <path d="m435.84 1049.8c-31.641 0-59.859-8.25-71.672-28.078-13.172-22.031-3.5156-49.359 28.594-81.141 30-29.672 87.516-65.297 170.86-105.89l19.219-9.4219c99.188-48.562 164.72-80.672 288-61.172 34.406 5.4375 69.562 14.578 104.44 27.141 8.2969 3 12.609 12.141 9.6094 20.438s-12.141 12.609-20.438 9.6094c-32.953-11.906-66.141-20.531-98.578-25.641-113.34-17.906-171.94 10.781-268.97 58.312l-19.312 9.4219c-79.125 38.484-135.24 72.984-162.37 99.844-22.641 22.406-26.859 36.656-23.672 42.094 7.7812 13.031 52.875 17.859 97.172 4.3594 63.234-19.266 236.9-74.016 238.64-74.578 8.3906-2.625 17.391 2.0156 20.016 10.453s-2.0156 17.391-10.453 20.016c-1.7344 0.5625-175.55 55.312-238.92 74.625-19.828 6.0469-41.766 9.5156-62.25 9.5156z" fill="#4e45e5" fill-rule="evenodd"/>
 <path d="m293.68 968.53c-2.6719 0-5.4375-0.70312-7.9219-2.1094-39.562-22.641-44.344-58.688-31.5-84.328 12.984-25.969 45.984-45.328 81.562-29.953l117.94 50.859c8.1094 3.5156 11.812 12.891 8.3438 21s-12.891 11.766-21 8.3438l-117.94-50.906c-17.578-7.5938-33.891 2.0156-40.312 14.906-7.6875 15.375-0.65625 31.219 18.797 42.375 7.6406 4.4062 10.312 14.156 5.9531 21.797-2.9531 5.1562-8.3438 8.0625-13.875 8.0625z" fill="#4e45e5" fill-rule="evenodd"/>
 <path d="m549.52 1199.9c-30 0-58.828-3.8906-88.359-12.797-79.312-23.906-236.53-102.47-362.34-192.66-46.969-33.656-45.328-75.562-29.672-101.2 16.969-27.75 55.359-45.703 90.234-27.797l223.31 114.94c7.8281 4.0312 10.922 13.688 6.8906 21.516-4.0312 7.8281-13.688 10.922-21.516 6.8906l-223.31-114.94c-18.141-9.3281-39.188 1.0781-48.375 16.031-11.578 18.984-3.75 40.922 21 58.641 123.14 88.219 276.14 164.9 352.97 188.02 88.219 26.578 169.69 4.3125 317.58-36.141 51.281-14.016 109.41-29.906 178.22-46.594 8.5781-2.1094 17.203 3.1875 19.266 11.766 2.0625 8.5781-3.1875 17.203-11.766 19.266-68.391 16.594-126.24 32.391-177.28 46.359-103.36 28.266-178.22 48.75-246.89 48.75z" fill="#4e45e5" fill-rule="evenodd"/>
 <path d="m1102.1 1150.5h-109.55c-21.281 0-38.625-17.297-38.625-38.625v-324.89c0-21.281 17.297-38.625 38.625-38.625h109.55c21.281 0 38.625 17.297 38.625 38.625v324.94c0 21.281-17.344 38.578-38.625 38.578zm-109.59-370.18c-3.6094 0-6.6562 3.0469-6.6562 6.6562v324.94c0 3.6094 3.0469 6.6562 6.6562 6.6562h109.55c3.6094 0 6.6562-3.0469 6.6562-6.6562v-324.94c0-3.6094-3.0469-6.6562-6.6562-6.6562z" fill="#4e45e5" fill-rule="evenodd"/>
 <path d="m1047.3 896.29c-8.8125 0-15.984-7.1719-15.984-15.984v-49.5c0-8.8125 7.1719-15.984 15.984-15.984s15.984 7.1719 15.984 15.984v49.5c0 8.8125-7.125 15.984-15.984 15.984z" fill="#4e45e5" fill-rule="evenodd"/>
 <path d="m741.56 737.48c-12.375 0-31.781-5.9062-48.281-37.219-17.297 2.5312-37.406-2.3438-55.594-14.109s-30.891-28.031-35.672-44.906c-43.594-2.6719-53.766-25.5-56.156-35.906-5.9531-26.156 15.188-54.703 52.594-71.016l74.391-32.484c8.0625-3.5156 17.484 0.1875 21.047 8.25 3.5156 8.0625-0.1875 17.484-8.25 21.047l-74.391 32.484c-24.984 10.875-35.906 27.141-34.219 34.688 1.3594 6 13.969 11.906 38.344 11.203 4.3594-0.1875 8.7188 1.5469 11.812 4.6406 3.1406 3.1406 4.8281 7.4062 4.6875 11.812-0.375 10.734 8.9531 24.141 23.156 33.328s30.234 12.188 39.938 7.4531c3.9375-1.9688 8.5781-2.1562 12.703-0.60938 4.1719 1.5469 7.4531 4.7812 9.0938 8.8594 9.2812 22.594 19.969 31.5 25.875 30.422 7.6406-1.5469 18-18.469 17.672-46.125l-0.98438-80.578c-0.09375-8.8125 6.9375-16.031 15.75-16.172 8.7188-0.5625 16.031 6.9844 16.172 15.797l0.98438 80.578c0.51562 41.203-16.875 72.469-43.266 77.812-1.9688 0.42188-4.5 0.75-7.4062 0.75z" fill="#4e45e5" fill-rule="evenodd"/>
 <path d="m778.13 594.56c-25.594 0-48.703-6.5625-68.719-19.5-38.719-25.031-60.375-70.5-60.984-128.06-0.5625-55.125 18.375-115.27 53.344-169.4 52.875-81.844 133.6-134.72 205.6-134.72 25.594 0 48.703 6.5625 68.719 19.5 77.719 50.25 81.141 183.66 7.5938 297.42-52.875 81.844-133.6 134.72-205.6 134.72zm129.24-419.72c-61.453 0-131.63 47.156-178.78 120.1-31.641 48.938-48.75 102.8-48.234 151.74 0.46875 46.453 16.969 82.547 46.359 101.53 14.766 9.5156 32.062 14.391 51.375 14.391 61.453 0 131.63-47.156 178.78-120.1 63.984-99 64.828-212.63 1.875-253.26-14.719-9.5156-32.062-14.391-51.375-14.391z" fill="#4e45e5" fill-rule="evenodd"/>
 <path d="m1006.4 237c-6.1406 0-12.047-3.5625-14.625-9.5625-3.5156-8.1094 0.1875-17.484 8.25-21.047l73.828-32.203c25.406-11.062 36.562-27.469 34.828-35.062-1.3594-5.9531-13.781-11.906-38.344-11.062-4.3594 0.23438-8.7188-1.5469-11.812-4.6406-3.1406-3.1406-4.8281-7.4062-4.6406-11.812 0.375-10.734-8.9531-24.141-23.156-33.328-14.25-9.1875-30.281-12.188-39.938-7.4531-3.9844 1.9688-8.5781 2.2031-12.703 0.60938-4.1719-1.5469-7.4531-4.7812-9.0938-8.8594-9.2812-22.594-20.062-31.547-25.969-30.328-7.5938 1.5469-17.906 18.188-17.578 45.422l0.98438 81.188c0.09375 8.8125-6.9375 16.031-15.75 16.172-9.1875-0.046875-16.031-6.9844-16.172-15.797l-0.98438-81.188c-0.51562-40.781 16.828-71.766 43.172-77.109 10.453-2.1094 35.438-2.2031 55.781 36.422 17.344-2.5781 37.406 2.3438 55.594 14.062 18.188 11.766 30.891 28.031 35.672 44.906 43.641 2.6719 53.812 25.406 56.156 35.766 5.9531 26.25-15.422 54.938-53.203 71.391l-73.828 32.203c-2.1094 0.89062-4.2656 1.3125-6.375 1.3125z" fill="#4e45e5" fill-rule="evenodd"/>
 <path d="m998.48 413.95c-4.6406 0-9.2812-2.0156-12.422-5.9062l-174.61-215.68c-5.5312-6.8438-4.5-16.922 2.3438-22.453 6.8906-5.5312 16.922-4.5 22.453 2.3906l174.61 215.68c5.5312 6.8438 4.5 16.922-2.3438 22.453-2.9531 2.3906-6.5156 3.5625-10.031 3.5625z" fill="#4e45e5" fill-rule="evenodd"/>
 <path d="m949.78 495.66c-4.6406 0-9.2812-2.0156-12.422-5.9062l-196.26-242.39c-5.5312-6.8438-4.5-16.922 2.3438-22.453 6.8906-5.5312 16.922-4.5 22.453 2.3906l196.26 242.39c5.5312 6.8438 4.5 16.922-2.3438 22.453-2.9531 2.3906-6.5156 3.5625-10.031 3.5625z" fill="#4e45e5" fill-rule="evenodd"/>
 <path d="m884.68 557.02c-4.6406 0-9.2812-2.0156-12.422-5.9062l-184.87-228.37c-5.5312-6.8438-4.5-16.922 2.3438-22.453 6.8906-5.5312 16.922-4.5 22.453 2.3906l184.87 228.37c5.5312 6.8438 4.5 16.922-2.3438 22.453-2.9531 2.3906-6.5156 3.5625-10.031 3.5625z" fill="#4e45e5" fill-rule="evenodd"/>
 <path d="m360.37 460.4h-2.25c-61.5-0.60938-119.06-25.078-162.1-69-43.031-43.875-66.422-101.91-65.812-163.4 1.2188-125.72 104.44-227.95 230.11-227.95h2.25c126.94 1.2188 229.18 105.47 227.95 232.4-1.2188 125.68-104.44 227.95-230.11 227.95zm-0.09375-428.39c-108.23 0-197.16 88.078-198.19 196.31-0.51563 52.969 19.641 102.94 56.719 140.72 37.078 37.781 86.672 58.922 139.6 59.391h1.9688c108.23 0 197.11-88.078 198.19-196.31 1.0781-109.31-87-199.08-196.31-200.16h-1.9688z" fill="#4e45e5" fill-rule="evenodd"/>
 <path d="m360.32 246.24c-7.3594 0-14.016-5.1562-15.609-12.609-1.1719-5.4844-27.797-135.19 50.766-222.98 5.9062-6.5625 15.984-7.125 22.547-1.2656 6.5625 5.9062 7.125 15.984 1.2656 22.547-67.828 75.844-43.594 193.87-43.312 195.05 1.8281 8.625-3.6562 17.109-12.281 18.938-1.125 0.23438-2.25 0.32812-3.3281 0.32812z" fill="#4e45e5" fill-rule="evenodd"/>
 <path d="m360.32 246.24c-2.9531 0-6-0.84375-8.6719-2.5781-7.4062-4.7812-9.5156-14.672-4.7344-22.078 3.0469-4.6875 75.938-115.22 193.6-121.78 8.625-0.60938 16.359 6.2344 16.828 15.047 0.51562 8.8125-6.2344 16.359-15.047 16.828-101.62 5.6719-167.9 106.27-168.56 107.3-3.0469 4.7344-8.2031 7.3125-13.406 7.3125z" fill="#4e45e5" fill-rule="evenodd"/>
 <path d="m569.34 293.26c-3.7969 0-7.5938-1.3594-10.641-4.0781-75.844-67.828-193.87-43.594-195.05-43.312-8.625 1.8281-17.109-3.6562-18.938-12.281s3.6562-17.109 12.281-18.938c5.4844-1.1719 135.19-27.797 222.98 50.766 6.5625 5.9062 7.125 15.984 1.2656 22.547-3.1406 3.5156-7.5 5.3438-11.906 5.3438z" fill="#4e45e5" fill-rule="evenodd"/>
 <path d="m474.89 427.26c-8.3906 0-15.469-6.5625-15.938-15.094-5.6719-101.62-106.27-167.9-107.3-168.56-7.4062-4.7812-9.5156-14.672-4.7344-22.078s14.672-9.5156 22.078-4.7344c4.6875 3.0469 115.27 75.938 121.82 193.6 0.51563 8.8125-6.2344 16.359-15.047 16.828h-0.89063z" fill="#4e45e5" fill-rule="evenodd"/>
 <path d="m313.31 455.26c-3.7969 0-7.5938-1.3594-10.641-4.0781-6.5625-5.9062-7.125-15.984-1.2656-22.547 67.594-75.562 43.594-193.87 43.312-195.05-1.8281-8.625 3.6562-17.109 12.281-18.938 8.6719-1.875 17.109 3.6562 18.938 12.281 1.1719 5.4844 27.797 135.19-50.766 222.98-3.1875 3.5156-7.5469 5.3438-11.906 5.3438z" fill="#4e45e5" fill-rule="evenodd"/>
 <path d="m179.26 360.74c-8.3906 0-15.469-6.5625-15.938-15.094-0.51562-8.8125 6.2344-16.359 15.047-16.828 101.62-5.6719 167.9-106.27 168.56-107.3 4.7812-7.4062 14.672-9.5156 22.078-4.7344s9.5156 14.672 4.7344 22.078c-3.0469 4.6875-75.938 115.22-193.6 121.78-0.28125 0-0.60938 0.046875-0.89062 0.046875z" fill="#4e45e5" fill-rule="evenodd"/>
 <path d="m305.39 251.16c-46.828 0-113.02-9.7969-164.72-56.016-6.5625-5.9062-7.125-15.984-1.2656-22.547 5.9062-6.5625 15.984-7.125 22.547-1.2656 75.609 67.594 193.87 43.547 195.05 43.312 8.6719-1.8281 17.109 3.7031 18.938 12.328 1.8281 8.625-3.6562 17.109-12.281 18.938-2.25 0.46875-25.547 5.25-58.266 5.25z" fill="#4e45e5" fill-rule="evenodd"/>
 <path d="m360.32 246.24c-2.9531 0-6-0.84375-8.6719-2.5781-4.6875-3.0469-115.22-75.938-121.78-193.6-0.51562-8.8125 6.2344-16.359 15.047-16.828 8.7188-0.5625 16.359 6.2344 16.828 15.047 5.6719 101.62 106.27 167.9 107.3 168.56 7.4062 4.7812 9.5156 14.672 4.7344 22.078-3.0469 4.7344-8.2031 7.3125-13.406 7.3125z" fill="#4e45e5" fill-rule="evenodd"/>
 <path d="m360.32 760.13c-8.8125 0-15.984-7.1719-15.984-15.984v-299.68c0-8.8125 7.1719-15.984 15.984-15.984s15.984 7.1719 15.984 15.984v299.68c0 8.8125-7.125 15.984-15.984 15.984z" fill="#4e45e5" fill-rule="evenodd"/>
</svg>
